<mxfile host="app.diagrams.net" agent="Mozilla/5.0 (X11; Ubuntu; Linux x86_64; rv:143.0) Gecko/20100101 Firefox/143.0" version="28.2.3">
  <diagram id="C5RBs43oDa-KdzZeNtuy" name="Page-1">
    <mxGraphModel dx="2194" dy="1228" grid="1" gridSize="10" guides="1" tooltips="1" connect="1" arrows="1" fold="1" page="1" pageScale="1" pageWidth="827" pageHeight="1169" math="0" shadow="0">
      <root>
        <mxCell id="WIyWlLk6GJQsqaUBKTNV-0" />
        <mxCell id="WIyWlLk6GJQsqaUBKTNV-1" parent="WIyWlLk6GJQsqaUBKTNV-0" />
        <mxCell id="7MVLAz_MhGsNrZvwrw_P-31" value="" style="edgeStyle=orthogonalEdgeStyle;rounded=0;orthogonalLoop=1;jettySize=auto;html=1;" edge="1" parent="WIyWlLk6GJQsqaUBKTNV-1" source="7MVLAz_MhGsNrZvwrw_P-29">
          <mxGeometry relative="1" as="geometry">
            <mxPoint x="390" y="160" as="targetPoint" />
          </mxGeometry>
        </mxCell>
        <mxCell id="7MVLAz_MhGsNrZvwrw_P-29" value="start" style="rounded=1;whiteSpace=wrap;html=1;fillColor=#1ba1e2;fontColor=#ffffff;strokeColor=#006EAF;" vertex="1" parent="WIyWlLk6GJQsqaUBKTNV-1">
          <mxGeometry x="330" y="20" width="120" height="60" as="geometry" />
        </mxCell>
        <mxCell id="7MVLAz_MhGsNrZvwrw_P-33" value="" style="edgeStyle=orthogonalEdgeStyle;rounded=0;orthogonalLoop=1;jettySize=auto;html=1;" edge="1" parent="WIyWlLk6GJQsqaUBKTNV-1">
          <mxGeometry relative="1" as="geometry">
            <mxPoint x="390" y="220" as="sourcePoint" />
            <mxPoint x="390" y="300" as="targetPoint" />
          </mxGeometry>
        </mxCell>
        <mxCell id="7MVLAz_MhGsNrZvwrw_P-35" value="" style="edgeStyle=orthogonalEdgeStyle;rounded=0;orthogonalLoop=1;jettySize=auto;html=1;" edge="1" parent="WIyWlLk6GJQsqaUBKTNV-1" target="7MVLAz_MhGsNrZvwrw_P-34">
          <mxGeometry relative="1" as="geometry">
            <mxPoint x="390" y="360" as="sourcePoint" />
          </mxGeometry>
        </mxCell>
        <mxCell id="7MVLAz_MhGsNrZvwrw_P-40" style="edgeStyle=orthogonalEdgeStyle;rounded=0;orthogonalLoop=1;jettySize=auto;html=1;entryX=0.5;entryY=0;entryDx=0;entryDy=0;" edge="1" parent="WIyWlLk6GJQsqaUBKTNV-1" source="7MVLAz_MhGsNrZvwrw_P-34" target="7MVLAz_MhGsNrZvwrw_P-43">
          <mxGeometry relative="1" as="geometry">
            <mxPoint x="110" y="770" as="targetPoint" />
          </mxGeometry>
        </mxCell>
        <mxCell id="7MVLAz_MhGsNrZvwrw_P-34" value="Does this page have the word you are looking for?" style="rhombus;whiteSpace=wrap;html=1;fillColor=#008a00;strokeColor=#005700;fontColor=#ffffff;rounded=1;" vertex="1" parent="WIyWlLk6GJQsqaUBKTNV-1">
          <mxGeometry x="305" y="450" width="170" height="175" as="geometry" />
        </mxCell>
        <mxCell id="7MVLAz_MhGsNrZvwrw_P-38" value="" style="edgeStyle=orthogonalEdgeStyle;rounded=0;orthogonalLoop=1;jettySize=auto;html=1;" edge="1" parent="WIyWlLk6GJQsqaUBKTNV-1" source="7MVLAz_MhGsNrZvwrw_P-34" target="7MVLAz_MhGsNrZvwrw_P-37">
          <mxGeometry relative="1" as="geometry">
            <mxPoint x="600" y="680" as="targetPoint" />
            <mxPoint x="475" y="523" as="sourcePoint" />
          </mxGeometry>
        </mxCell>
        <mxCell id="7MVLAz_MhGsNrZvwrw_P-57" value="" style="edgeStyle=orthogonalEdgeStyle;rounded=0;orthogonalLoop=1;jettySize=auto;html=1;" edge="1" parent="WIyWlLk6GJQsqaUBKTNV-1" source="7MVLAz_MhGsNrZvwrw_P-37" target="7MVLAz_MhGsNrZvwrw_P-56">
          <mxGeometry relative="1" as="geometry" />
        </mxCell>
        <mxCell id="7MVLAz_MhGsNrZvwrw_P-68" style="edgeStyle=orthogonalEdgeStyle;rounded=0;orthogonalLoop=1;jettySize=auto;html=1;entryX=0.5;entryY=0;entryDx=0;entryDy=0;" edge="1" parent="WIyWlLk6GJQsqaUBKTNV-1" source="7MVLAz_MhGsNrZvwrw_P-37" target="7MVLAz_MhGsNrZvwrw_P-59">
          <mxGeometry relative="1" as="geometry" />
        </mxCell>
        <mxCell id="7MVLAz_MhGsNrZvwrw_P-37" value="Do the words on this page come before the word you are looking for alphabetically?" style="rhombus;whiteSpace=wrap;html=1;fillColor=#008a00;fontColor=#ffffff;strokeColor=#005700;" vertex="1" parent="WIyWlLk6GJQsqaUBKTNV-1">
          <mxGeometry x="490" y="680" width="260" height="210" as="geometry" />
        </mxCell>
        <mxCell id="7MVLAz_MhGsNrZvwrw_P-39" value="No" style="text;html=1;align=center;verticalAlign=middle;resizable=0;points=[];autosize=1;strokeColor=none;fillColor=none;" vertex="1" parent="WIyWlLk6GJQsqaUBKTNV-1">
          <mxGeometry x="511" y="488" width="40" height="30" as="geometry" />
        </mxCell>
        <mxCell id="7MVLAz_MhGsNrZvwrw_P-71" style="edgeStyle=orthogonalEdgeStyle;rounded=0;orthogonalLoop=1;jettySize=auto;html=1;entryX=0.5;entryY=0;entryDx=0;entryDy=0;" edge="1" parent="WIyWlLk6GJQsqaUBKTNV-1" source="7MVLAz_MhGsNrZvwrw_P-43" target="7MVLAz_MhGsNrZvwrw_P-49">
          <mxGeometry relative="1" as="geometry" />
        </mxCell>
        <mxCell id="7MVLAz_MhGsNrZvwrw_P-43" value="&lt;div&gt;Read the word definition&lt;/div&gt;" style="rounded=0;whiteSpace=wrap;html=1;fillColor=#0050ef;fontColor=#ffffff;strokeColor=#001DBC;" vertex="1" parent="WIyWlLk6GJQsqaUBKTNV-1">
          <mxGeometry x="60" y="585" width="120" height="60" as="geometry" />
        </mxCell>
        <mxCell id="7MVLAz_MhGsNrZvwrw_P-44" value="Open dictionary to a random page" style="rounded=0;whiteSpace=wrap;html=1;fillColor=#0050ef;fontColor=#ffffff;strokeColor=#001DBC;" vertex="1" parent="WIyWlLk6GJQsqaUBKTNV-1">
          <mxGeometry x="330" y="300" width="120" height="60" as="geometry" />
        </mxCell>
        <mxCell id="7MVLAz_MhGsNrZvwrw_P-45" value="decide what word to look up" style="rounded=0;whiteSpace=wrap;html=1;fillColor=#0050ef;fontColor=#ffffff;strokeColor=#001DBC;" vertex="1" parent="WIyWlLk6GJQsqaUBKTNV-1">
          <mxGeometry x="330" y="160" width="120" height="60" as="geometry" />
        </mxCell>
        <mxCell id="7MVLAz_MhGsNrZvwrw_P-46" value="Yes" style="text;html=1;align=center;verticalAlign=middle;resizable=0;points=[];autosize=1;strokeColor=none;fillColor=none;" vertex="1" parent="WIyWlLk6GJQsqaUBKTNV-1">
          <mxGeometry x="231" y="488" width="40" height="30" as="geometry" />
        </mxCell>
        <mxCell id="7MVLAz_MhGsNrZvwrw_P-49" value="End" style="rounded=1;whiteSpace=wrap;html=1;fillColor=#1ba1e2;fontColor=#ffffff;strokeColor=#006EAF;" vertex="1" parent="WIyWlLk6GJQsqaUBKTNV-1">
          <mxGeometry x="60" y="730" width="120" height="60" as="geometry" />
        </mxCell>
        <mxCell id="7MVLAz_MhGsNrZvwrw_P-55" value="Yes" style="text;html=1;align=center;verticalAlign=middle;resizable=0;points=[];autosize=1;strokeColor=none;fillColor=none;" vertex="1" parent="WIyWlLk6GJQsqaUBKTNV-1">
          <mxGeometry x="690" y="900" width="40" height="30" as="geometry" />
        </mxCell>
        <mxCell id="7MVLAz_MhGsNrZvwrw_P-72" style="edgeStyle=orthogonalEdgeStyle;rounded=0;orthogonalLoop=1;jettySize=auto;html=1;entryX=0.5;entryY=0;entryDx=0;entryDy=0;" edge="1" parent="WIyWlLk6GJQsqaUBKTNV-1" source="7MVLAz_MhGsNrZvwrw_P-56" target="7MVLAz_MhGsNrZvwrw_P-34">
          <mxGeometry relative="1" as="geometry">
            <Array as="points">
              <mxPoint x="960" y="430" />
              <mxPoint x="390" y="430" />
            </Array>
          </mxGeometry>
        </mxCell>
        <mxCell id="7MVLAz_MhGsNrZvwrw_P-56" value="Turn back a page" style="whiteSpace=wrap;html=1;fillColor=#0050ef;strokeColor=#001DBC;fontColor=#ffffff;" vertex="1" parent="WIyWlLk6GJQsqaUBKTNV-1">
          <mxGeometry x="890" y="755" width="120" height="60" as="geometry" />
        </mxCell>
        <mxCell id="7MVLAz_MhGsNrZvwrw_P-69" style="edgeStyle=orthogonalEdgeStyle;rounded=0;orthogonalLoop=1;jettySize=auto;html=1;" edge="1" parent="WIyWlLk6GJQsqaUBKTNV-1" source="7MVLAz_MhGsNrZvwrw_P-59">
          <mxGeometry relative="1" as="geometry">
            <mxPoint x="960" y="660" as="targetPoint" />
            <Array as="points">
              <mxPoint x="1100" y="1000" />
            </Array>
          </mxGeometry>
        </mxCell>
        <mxCell id="7MVLAz_MhGsNrZvwrw_P-59" value="&lt;div&gt;turn a page further into the dictionary&lt;/div&gt;&lt;div&gt;&lt;br&gt;&lt;/div&gt;" style="rounded=0;whiteSpace=wrap;html=1;fillColor=#0050ef;fontColor=#ffffff;strokeColor=#001DBC;" vertex="1" parent="WIyWlLk6GJQsqaUBKTNV-1">
          <mxGeometry x="560" y="940" width="120" height="60" as="geometry" />
        </mxCell>
      </root>
    </mxGraphModel>
  </diagram>
</mxfile>
